<svg width="200" height="200" viewBox="0 0 200 200" fill="none" xmlns="http://www.w3.org/2000/svg">
<circle cx="100" cy="100" r="100" fill="url(#paint0_linear)"/>
<path d="M19.8484 113C19.7151 113 19.6018 112.96 19.5084 112.88C19.4284 112.787 19.3884 112.673 19.3884 112.54V99.48C19.3884 99.3333 19.4284 99.22 19.5084 99.14C19.6018 99.0467 19.7151 99 19.8484 99H28.0084C28.1551 99 28.2684 99.0467 28.3484 99.14C28.4418 99.22 28.4884 99.3333 28.4884 99.48V100.28C28.4884 100.413 28.4418 100.527 28.3484 100.62C28.2684 100.7 28.1551 100.74 28.0084 100.74H21.3284V105.4H27.6084C27.7551 105.4 27.8684 105.447 27.9484 105.54C28.0418 105.62 28.0884 105.733 28.0884 105.88V106.68C28.0884 106.813 28.0418 106.927 27.9484 107.02C27.8551 107.1 27.7418 107.14 27.6084 107.14H21.3284V112.54C21.3284 112.673 21.2818 112.787 21.1884 112.88C21.0951 112.96 20.9818 113 20.8484 113H19.8484ZM36.0105 113.2C34.2638 113.2 32.9105 112.747 31.9505 111.84C31.0038 110.92 30.5038 109.54 30.4505 107.7C30.4371 107.3 30.4305 106.733 30.4305 106C30.4305 105.267 30.4371 104.707 30.4505 104.32C30.5038 102.52 31.0238 101.153 32.0105 100.22C32.9971 99.2733 34.3305 98.8 36.0105 98.8C37.6771 98.8 39.0038 99.2733 39.9905 100.22C40.9771 101.153 41.4971 102.52 41.5505 104.32C41.5771 105.093 41.5905 105.653 41.5905 106C41.5905 106.333 41.5771 106.9 41.5505 107.7C41.4971 109.54 40.9905 110.92 40.0305 111.84C39.0838 112.747 37.7438 113.2 36.0105 113.2ZM36.0105 111.5C37.0638 111.5 37.9038 111.18 38.5305 110.54C39.1571 109.9 39.4971 108.92 39.5505 107.6C39.5771 106.8 39.5905 106.267 39.5905 106C39.5905 105.707 39.5771 105.173 39.5505 104.4C39.4971 103.08 39.1505 102.1 38.5105 101.46C37.8838 100.82 37.0505 100.5 36.0105 100.5C34.9571 100.5 34.1105 100.82 33.4705 101.46C32.8438 102.1 32.5038 103.08 32.4505 104.4C32.4371 104.787 32.4305 105.32 32.4305 106C32.4305 106.667 32.4371 107.2 32.4505 107.6C32.5038 108.92 32.8438 109.9 33.4705 110.54C34.1105 111.18 34.9571 111.5 36.0105 111.5ZM49.7856 113.2C48.0656 113.2 46.7323 112.74 45.7856 111.82C44.8523 110.887 44.3856 109.48 44.3856 107.6V99.48C44.3856 99.3333 44.4256 99.22 44.5056 99.14C44.599 99.0467 44.7123 99 44.8456 99H45.8656C46.0123 99 46.1256 99.0467 46.2056 99.14C46.299 99.22 46.3456 99.3333 46.3456 99.48V107.64C46.3456 108.92 46.6456 109.88 47.2456 110.52C47.8456 111.16 48.6923 111.48 49.7856 111.48C50.879 111.48 51.7256 111.16 52.3256 110.52C52.9256 109.88 53.2256 108.92 53.2256 107.64V99.48C53.2256 99.3333 53.2656 99.22 53.3456 99.14C53.439 99.0467 53.5523 99 53.6856 99H54.7256C54.859 99 54.9656 99.0467 55.0456 99.14C55.139 99.2333 55.1856 99.3467 55.1856 99.48V107.6C55.1856 109.48 54.7123 110.887 53.7656 111.82C52.8323 112.74 51.5056 113.2 49.7856 113.2ZM58.9891 113C58.8557 113 58.7424 112.96 58.6491 112.88C58.5691 112.787 58.5291 112.673 58.5291 112.54V99.48C58.5291 99.3333 58.5691 99.22 58.6491 99.14C58.7424 99.0467 58.8557 99 58.9891 99H59.9091C60.1491 99 60.3157 99.0933 60.4091 99.28L67.0491 109.48V99.48C67.0491 99.3333 67.0891 99.22 67.1691 99.14C67.2624 99.0467 67.3757 99 67.5091 99H68.4691C68.6157 99 68.7291 99.0467 68.8091 99.14C68.9024 99.22 68.9491 99.3333 68.9491 99.48V112.52C68.9491 112.653 68.9024 112.767 68.8091 112.86C68.7291 112.953 68.6224 113 68.4891 113H67.5291C67.3291 113 67.1691 112.907 67.0491 112.72L60.4291 102.62V112.54C60.4291 112.673 60.3824 112.787 60.2891 112.88C60.1957 112.96 60.0824 113 59.9491 113H58.9891ZM75.9553 113C75.822 113 75.7086 112.96 75.6153 112.88C75.5353 112.787 75.4953 112.673 75.4953 112.54V100.78H71.6553C71.522 100.78 71.4086 100.74 71.3153 100.66C71.2353 100.567 71.1953 100.453 71.1953 100.32V99.48C71.1953 99.3467 71.2353 99.2333 71.3153 99.14C71.4086 99.0467 71.522 99 71.6553 99H81.2953C81.442 99 81.5553 99.0467 81.6353 99.14C81.7286 99.22 81.7753 99.3333 81.7753 99.48V100.32C81.7753 100.453 81.7286 100.567 81.6353 100.66C81.542 100.74 81.4286 100.78 81.2953 100.78H77.4753V112.54C77.4753 112.673 77.4286 112.787 77.3353 112.88C77.242 112.96 77.1286 113 76.9953 113H75.9553ZM81.593 113C81.4863 113 81.393 112.96 81.313 112.88C81.233 112.8 81.193 112.707 81.193 112.6C81.193 112.493 81.1996 112.42 81.213 112.38L86.173 99.44C86.2796 99.1467 86.493 99 86.813 99H88.173C88.493 99 88.7063 99.1467 88.813 99.44L93.753 112.38L93.793 112.6C93.793 112.707 93.753 112.8 93.673 112.88C93.593 112.96 93.4996 113 93.393 113H92.373C92.2263 113 92.113 112.967 92.033 112.9C91.953 112.82 91.8996 112.74 91.873 112.66L90.773 109.82H84.213L83.113 112.66C83.0863 112.74 83.0263 112.82 82.933 112.9C82.853 112.967 82.7463 113 82.613 113H81.593ZM90.193 108.1L87.493 101L84.793 108.1H90.193ZM96.3914 113C96.2581 113 96.1447 112.96 96.0514 112.88C95.9714 112.787 95.9314 112.673 95.9314 112.54V99.46C95.9314 99.3267 95.9714 99.22 96.0514 99.14C96.1447 99.0467 96.2581 99 96.3914 99H97.4514C97.5847 99 97.6914 99.0467 97.7714 99.14C97.8647 99.22 97.9114 99.3267 97.9114 99.46V112.54C97.9114 112.673 97.8647 112.787 97.7714 112.88C97.6914 112.96 97.5847 113 97.4514 113H96.3914ZM101.86 113C101.727 113 101.613 112.96 101.52 112.88C101.44 112.787 101.4 112.673 101.4 112.54V99.48C101.4 99.3333 101.44 99.22 101.52 99.14C101.613 99.0467 101.727 99 101.86 99H102.78C103.02 99 103.187 99.0933 103.28 99.28L109.92 109.48V99.48C109.92 99.3333 109.96 99.22 110.04 99.14C110.133 99.0467 110.247 99 110.38 99H111.34C111.487 99 111.6 99.0467 111.68 99.14C111.773 99.22 111.82 99.3333 111.82 99.48V112.52C111.82 112.653 111.773 112.767 111.68 112.86C111.6 112.953 111.493 113 111.36 113H110.4C110.2 113 110.04 112.907 109.92 112.72L103.3 102.62V112.54C103.3 112.673 103.253 112.787 103.16 112.88C103.067 112.96 102.953 113 102.82 113H101.86ZM125.309 113.2C123.562 113.2 122.202 112.727 121.229 111.78C120.269 110.82 119.755 109.513 119.689 107.86C119.675 107.46 119.669 106.833 119.669 105.98C119.669 105.113 119.675 104.487 119.689 104.1C119.755 102.46 120.275 101.167 121.249 100.22C122.222 99.2733 123.575 98.8 125.309 98.8C126.482 98.8 127.475 99.0133 128.289 99.44C129.115 99.8533 129.735 100.36 130.149 100.96C130.562 101.56 130.782 102.12 130.809 102.64V102.68C130.809 102.787 130.769 102.873 130.689 102.94C130.609 103.007 130.509 103.04 130.389 103.04H129.209C129.075 103.04 128.975 103.02 128.909 102.98C128.855 102.927 128.802 102.827 128.749 102.68C128.549 102.08 128.162 101.567 127.589 101.14C127.029 100.713 126.269 100.5 125.309 100.5C124.202 100.5 123.335 100.8 122.709 101.4C122.082 102 121.742 102.933 121.689 104.2C121.675 104.587 121.669 105.18 121.669 105.98C121.669 106.767 121.675 107.36 121.689 107.76C121.742 109.04 122.082 109.987 122.709 110.6C123.335 111.2 124.202 111.5 125.309 111.5C126.429 111.5 127.322 111.193 127.989 110.58C128.655 109.967 128.989 109.047 128.989 107.82V106.98H125.989C125.855 106.98 125.742 106.94 125.649 106.86C125.569 106.767 125.529 106.647 125.529 106.5V105.86C125.529 105.727 125.569 105.613 125.649 105.52C125.742 105.427 125.855 105.38 125.989 105.38H130.509C130.642 105.38 130.749 105.427 130.829 105.52C130.922 105.6 130.969 105.713 130.969 105.86V107.78C130.969 108.873 130.742 109.827 130.289 110.64C129.835 111.453 129.182 112.087 128.329 112.54C127.475 112.98 126.469 113.2 125.309 113.2ZM134.282 113C134.149 113 134.035 112.96 133.942 112.88C133.862 112.787 133.822 112.673 133.822 112.54V99.48C133.822 99.3333 133.862 99.22 133.942 99.14C134.035 99.0467 134.149 99 134.282 99H139.162C140.695 99 141.895 99.36 142.762 100.08C143.629 100.8 144.062 101.84 144.062 103.2C144.062 104.213 143.809 105.047 143.302 105.7C142.809 106.353 142.109 106.807 141.202 107.06L144.282 112.38C144.322 112.46 144.342 112.533 144.342 112.6C144.342 112.707 144.295 112.8 144.202 112.88C144.122 112.96 144.029 113 143.922 113H142.962C142.762 113 142.602 112.953 142.482 112.86C142.375 112.767 142.275 112.633 142.182 112.46L139.282 107.38H135.782V112.54C135.782 112.673 135.735 112.787 135.642 112.88C135.549 112.96 135.435 113 135.302 113H134.282ZM139.082 105.68C141.069 105.68 142.062 104.847 142.062 103.18C142.062 101.513 141.069 100.68 139.082 100.68H135.782V105.68H139.082ZM147.388 113C147.254 113 147.141 112.96 147.048 112.88C146.968 112.787 146.928 112.673 146.928 112.54V99.48C146.928 99.3333 146.968 99.22 147.048 99.14C147.141 99.0467 147.254 99 147.388 99H155.648C155.781 99 155.888 99.0467 155.968 99.14C156.061 99.22 156.108 99.3333 156.108 99.48V100.24C156.108 100.373 156.068 100.487 155.988 100.58C155.908 100.66 155.794 100.7 155.648 100.7H148.848V105.08H155.208C155.341 105.08 155.448 105.127 155.528 105.22C155.621 105.3 155.668 105.413 155.668 105.56V106.3C155.668 106.433 155.621 106.547 155.528 106.64C155.448 106.72 155.341 106.76 155.208 106.76H148.848V111.3H155.808C155.954 111.3 156.068 111.34 156.148 111.42C156.228 111.5 156.268 111.613 156.268 111.76V112.54C156.268 112.673 156.221 112.787 156.128 112.88C156.048 112.96 155.941 113 155.808 113H147.388ZM159.516 113C159.383 113 159.27 112.96 159.176 112.88C159.096 112.787 159.056 112.673 159.056 112.54V99.48C159.056 99.3333 159.096 99.22 159.176 99.14C159.27 99.0467 159.383 99 159.516 99H167.776C167.91 99 168.016 99.0467 168.096 99.14C168.19 99.22 168.236 99.3333 168.236 99.48V100.24C168.236 100.373 168.196 100.487 168.116 100.58C168.036 100.66 167.923 100.7 167.776 100.7H160.976V105.08H167.336C167.47 105.08 167.576 105.127 167.656 105.22C167.75 105.3 167.796 105.413 167.796 105.56V106.3C167.796 106.433 167.75 106.547 167.656 106.64C167.576 106.72 167.47 106.76 167.336 106.76H160.976V111.3H167.936C168.083 111.3 168.196 111.34 168.276 111.42C168.356 111.5 168.396 111.613 168.396 111.76V112.54C168.396 112.673 168.35 112.787 168.256 112.88C168.176 112.96 168.07 113 167.936 113H159.516ZM171.645 113C171.512 113 171.399 112.96 171.305 112.88C171.225 112.787 171.185 112.673 171.185 112.54V99.48C171.185 99.3333 171.225 99.22 171.305 99.14C171.399 99.0467 171.512 99 171.645 99H172.565C172.805 99 172.972 99.0933 173.065 99.28L179.705 109.48V99.48C179.705 99.3333 179.745 99.22 179.825 99.14C179.919 99.0467 180.032 99 180.165 99H181.125C181.272 99 181.385 99.0467 181.465 99.14C181.559 99.22 181.605 99.3333 181.605 99.48V112.52C181.605 112.653 181.559 112.767 181.465 112.86C181.385 112.953 181.279 113 181.145 113H180.185C179.985 113 179.825 112.907 179.705 112.72L173.085 102.62V112.54C173.085 112.673 173.039 112.787 172.945 112.88C172.852 112.96 172.739 113 172.605 113H171.645Z" fill="#FAFF7F"/>
<path d="M24.5892 144C24.4292 144 24.2932 143.952 24.1812 143.856C24.0852 143.744 24.0372 143.608 24.0372 143.448V127.776C24.0372 127.6 24.0852 127.464 24.1812 127.368C24.2932 127.256 24.4292 127.2 24.5892 127.2H31.1652C32.8772 127.2 34.1652 127.608 35.0292 128.424C35.8932 129.24 36.3252 130.312 36.3252 131.64C36.3252 132.536 36.1172 133.28 35.7012 133.872C35.3012 134.464 34.8212 134.896 34.2612 135.168C34.9332 135.504 35.5012 136.024 35.9652 136.728C36.4292 137.432 36.6612 138.24 36.6612 139.152C36.6612 140.048 36.4532 140.864 36.0372 141.6C35.6372 142.336 35.0372 142.92 34.2372 143.352C33.4372 143.784 32.4772 144 31.3572 144H24.5892ZM30.8052 134.304C31.8132 134.304 32.5812 134.072 33.1092 133.608C33.6532 133.144 33.9252 132.496 33.9252 131.664C33.9252 130.848 33.6612 130.224 33.1332 129.792C32.6052 129.36 31.8292 129.144 30.8052 129.144H26.3892V134.304H30.8052ZM31.0452 142.056C32.0532 142.056 32.8372 141.784 33.3972 141.24C33.9732 140.696 34.2612 140 34.2612 139.152C34.2612 138.272 33.9732 137.568 33.3972 137.04C32.8372 136.496 32.0532 136.224 31.0452 136.224H26.3892V142.056H31.0452ZM40.6205 144C40.4605 144 40.3245 143.952 40.2125 143.856C40.1165 143.744 40.0685 143.608 40.0685 143.448V127.752C40.0685 127.592 40.1165 127.464 40.2125 127.368C40.3245 127.256 40.4605 127.2 40.6205 127.2H41.8925C42.0525 127.2 42.1805 127.256 42.2765 127.368C42.3885 127.464 42.4445 127.592 42.4445 127.752V141.912H50.4125C50.5885 141.912 50.7245 141.968 50.8205 142.08C50.9325 142.176 50.9885 142.312 50.9885 142.488V143.448C50.9885 143.608 50.9325 143.744 50.8205 143.856C50.7085 143.952 50.5725 144 50.4125 144H40.6205ZM59.4055 144.24C57.3095 144.24 55.6855 143.696 54.5335 142.608C53.3975 141.504 52.7975 139.848 52.7335 137.64C52.7175 137.16 52.7095 136.48 52.7095 135.6C52.7095 134.72 52.7175 134.048 52.7335 133.584C52.7975 131.424 53.4215 129.784 54.6055 128.664C55.7895 127.528 57.3895 126.96 59.4055 126.96C61.4055 126.96 62.9975 127.528 64.1815 128.664C65.3655 129.784 65.9895 131.424 66.0535 133.584C66.0855 134.512 66.1015 135.184 66.1015 135.6C66.1015 136 66.0855 136.68 66.0535 137.64C65.9895 139.848 65.3815 141.504 64.2295 142.608C63.0935 143.696 61.4855 144.24 59.4055 144.24ZM59.4055 142.2C60.6695 142.2 61.6775 141.816 62.4295 141.048C63.1815 140.28 63.5895 139.104 63.6535 137.52C63.6855 136.56 63.7015 135.92 63.7015 135.6C63.7015 135.248 63.6855 134.608 63.6535 133.68C63.5895 132.096 63.1735 130.92 62.4055 130.152C61.6535 129.384 60.6535 129 59.4055 129C58.1415 129 57.1255 129.384 56.3575 130.152C55.6055 130.92 55.1975 132.096 55.1335 133.68C55.1175 134.144 55.1095 134.784 55.1095 135.6C55.1095 136.4 55.1175 137.04 55.1335 137.52C55.1975 139.104 55.6055 140.28 56.3575 141.048C57.1255 141.816 58.1415 142.2 59.4055 142.2ZM75.6477 144.24C73.5037 144.24 71.8717 143.664 70.7517 142.512C69.6477 141.36 69.0557 139.768 68.9757 137.736C68.9597 137.304 68.9517 136.6 68.9517 135.624C68.9517 134.632 68.9597 133.912 68.9757 133.464C69.0557 131.448 69.6557 129.864 70.7757 128.712C71.8957 127.544 73.5197 126.96 75.6477 126.96C77.0717 126.96 78.2797 127.216 79.2717 127.728C80.2637 128.224 81.0157 128.88 81.5277 129.696C82.0397 130.512 82.3197 131.384 82.3677 132.312V132.36C82.3677 132.488 82.3117 132.6 82.1997 132.696C82.1037 132.776 81.9917 132.816 81.8637 132.816H80.5437C80.2237 132.816 80.0237 132.632 79.9437 132.264C79.6717 131.064 79.1837 130.224 78.4797 129.744C77.7757 129.248 76.8317 129 75.6477 129C72.8957 129 71.4717 130.528 71.3757 133.584C71.3597 134.016 71.3517 134.68 71.3517 135.576C71.3517 136.472 71.3597 137.152 71.3757 137.616C71.4717 140.672 72.8957 142.2 75.6477 142.2C76.8317 142.2 77.7757 141.96 78.4797 141.48C79.1997 140.984 79.6877 140.136 79.9437 138.936C79.9917 138.728 80.0637 138.584 80.1597 138.504C80.2557 138.424 80.3837 138.384 80.5437 138.384H81.8637C82.0077 138.384 82.1277 138.432 82.2237 138.528C82.3357 138.608 82.3837 138.72 82.3677 138.864C82.3197 139.808 82.0397 140.688 81.5277 141.504C81.0157 142.32 80.2637 142.984 79.2717 143.496C78.2797 143.992 77.0717 144.24 75.6477 144.24ZM86.1361 144C85.9761 144 85.8401 143.952 85.7281 143.856C85.6321 143.744 85.5841 143.608 85.5841 143.448V127.776C85.5841 127.6 85.6321 127.464 85.7281 127.368C85.8401 127.256 85.9761 127.2 86.1361 127.2H87.3361C87.5121 127.2 87.6481 127.256 87.7441 127.368C87.8561 127.464 87.9121 127.6 87.9121 127.776V133.728L94.3201 127.584C94.5761 127.328 94.8881 127.2 95.2561 127.2H96.5521C96.6801 127.2 96.7921 127.248 96.8881 127.344C96.9841 127.44 97.0321 127.552 97.0321 127.68C97.0321 127.808 97.0001 127.912 96.9361 127.992L89.5201 135.24L97.4161 143.184C97.4961 143.28 97.5361 143.392 97.5361 143.52C97.5361 143.648 97.4881 143.76 97.3921 143.856C97.2961 143.952 97.1841 144 97.0561 144H95.7121C95.3601 144 95.0481 143.864 94.7761 143.592L87.9121 136.848V143.448C87.9121 143.608 87.8561 143.744 87.7441 143.856C87.6321 143.952 87.4961 144 87.3361 144H86.1361ZM106.199 144C106.039 144 105.903 143.952 105.791 143.856C105.695 143.744 105.647 143.608 105.647 143.448V127.776C105.647 127.6 105.695 127.464 105.791 127.368C105.903 127.256 106.039 127.2 106.199 127.2H112.295C114.103 127.2 115.527 127.64 116.567 128.52C117.607 129.4 118.127 130.672 118.127 132.336C118.127 134 117.607 135.272 116.567 136.152C115.543 137.016 114.119 137.448 112.295 137.448H108.047V143.448C108.047 143.608 107.991 143.744 107.879 143.856C107.767 143.952 107.631 144 107.471 144H106.199ZM112.175 135.432C113.343 135.432 114.223 135.168 114.815 134.64C115.423 134.112 115.727 133.344 115.727 132.336C115.727 131.328 115.431 130.56 114.839 130.032C114.247 129.488 113.359 129.216 112.175 129.216H108.023V135.432H112.175ZM118.956 144C118.828 144 118.716 143.952 118.62 143.856C118.524 143.76 118.476 143.648 118.476 143.52C118.476 143.392 118.484 143.304 118.5 143.256L124.452 127.728C124.58 127.376 124.836 127.2 125.22 127.2H126.852C127.236 127.2 127.492 127.376 127.62 127.728L133.548 143.256L133.596 143.52C133.596 143.648 133.548 143.76 133.452 143.856C133.356 143.952 133.244 144 133.116 144H131.892C131.716 144 131.58 143.96 131.484 143.88C131.388 143.784 131.324 143.688 131.292 143.592L129.972 140.184H122.1L120.78 143.592C120.748 143.688 120.676 143.784 120.564 143.88C120.468 143.96 120.34 144 120.18 144H118.956ZM129.276 138.12L126.036 129.6L122.796 138.12H129.276ZM136.714 144C136.554 144 136.418 143.952 136.306 143.856C136.21 143.744 136.162 143.608 136.162 143.448V127.776C136.162 127.6 136.21 127.464 136.306 127.368C136.418 127.256 136.554 127.2 136.714 127.2H142.57C144.41 127.2 145.85 127.632 146.89 128.496C147.93 129.36 148.45 130.608 148.45 132.24C148.45 133.456 148.146 134.456 147.538 135.24C146.946 136.024 146.106 136.568 145.018 136.872L148.714 143.256C148.762 143.352 148.786 143.44 148.786 143.52C148.786 143.648 148.73 143.76 148.618 143.856C148.522 143.952 148.41 144 148.282 144H147.13C146.89 144 146.698 143.944 146.554 143.832C146.426 143.72 146.306 143.56 146.194 143.352L142.714 137.256H138.514V143.448C138.514 143.608 138.458 143.744 138.346 143.856C138.234 143.952 138.098 144 137.938 144H136.714ZM142.474 135.216C144.858 135.216 146.05 134.216 146.05 132.216C146.05 130.216 144.858 129.216 142.474 129.216H138.514V135.216H142.474ZM155.925 144C155.765 144 155.629 143.952 155.517 143.856C155.421 143.744 155.373 143.608 155.373 143.448V129.336H150.765C150.605 129.336 150.469 129.288 150.357 129.192C150.261 129.08 150.213 128.944 150.213 128.784V127.776C150.213 127.616 150.261 127.48 150.357 127.368C150.469 127.256 150.605 127.2 150.765 127.2H162.333C162.509 127.2 162.645 127.256 162.741 127.368C162.853 127.464 162.909 127.6 162.909 127.776V128.784C162.909 128.944 162.853 129.08 162.741 129.192C162.629 129.288 162.493 129.336 162.333 129.336H157.749V143.448C157.749 143.608 157.693 143.744 157.581 143.856C157.469 143.952 157.333 144 157.173 144H155.925ZM170.64 144C170.48 144 170.344 143.952 170.232 143.856C170.136 143.744 170.088 143.608 170.088 143.448V137.784L164.304 127.992C164.304 127.96 164.296 127.912 164.28 127.848C164.248 127.784 164.232 127.728 164.232 127.68C164.232 127.552 164.28 127.44 164.376 127.344C164.472 127.248 164.584 127.2 164.712 127.2H165.96C166.232 127.2 166.44 127.336 166.584 127.608L171.264 135.384L175.944 127.608C176.12 127.336 176.336 127.2 176.592 127.2H177.816C177.96 127.2 178.08 127.248 178.176 127.344C178.272 127.44 178.32 127.552 178.32 127.68C178.32 127.76 178.288 127.864 178.224 127.992L172.464 137.784V143.448C172.464 143.608 172.408 143.744 172.296 143.856C172.184 143.952 172.048 144 171.888 144H170.64Z" fill="#9EB7E5"/>
<path d="M125.045 64.51C125.42 65.0768 125.482 65.7947 125.214 66.4199C122.078 73.7268 115.693 78.5732 107.218 80.2936C108.795 82.0079 109.771 84.2828 109.808 86.7816C109.81 86.83 109.812 86.8784 109.812 86.9268C109.812 88.0442 108.906 88.9497 107.791 88.9497C107.789 88.9497 107.787 88.9497 107.787 88.9497H92.2149C91.0976 88.9497 90.1941 88.0442 90.1941 86.9268C90.1941 84.3715 91.1763 82.0401 92.7857 80.2936C84.309 78.5732 77.9218 73.7289 74.7857 66.4199C74.5174 65.7947 74.582 65.0768 74.9551 64.51C75.3302 63.9413 75.9635 63.6005 76.6452 63.6005H98.4226V55.4969C98.4226 54.6479 97.7329 53.9561 96.8838 53.9561C96.0368 53.9561 95.347 54.6479 95.347 55.4969C95.347 56.6142 94.4415 57.5178 93.3242 57.5178C92.2069 57.5178 91.3013 56.6142 91.3013 55.4969C91.3013 52.4173 93.8062 49.9124 96.8838 49.9124C97.4183 49.9124 97.9326 49.989 98.4226 50.1302V39.788C98.4226 38.0193 96.9847 36.5813 95.2179 36.5813C93.4512 36.5813 92.0132 38.0193 92.0132 39.788C92.0132 40.9053 91.1077 41.8109 89.9904 41.8109C88.8731 41.8109 87.9675 40.9053 87.9675 39.788C87.9675 35.7887 91.2206 32.5356 95.2179 32.5356C96.7911 32.5356 98.2492 33.0418 99.4391 33.8989C100.94 31.021 103.949 29.0505 107.414 29.0505C112.371 29.0505 116.405 33.0862 116.405 38.0455C116.405 39.1608 115.499 40.0663 114.382 40.0663C113.264 40.0663 112.359 39.1608 112.359 38.0455C112.359 35.3147 110.14 33.0942 107.414 33.0942C104.685 33.0942 102.466 35.3147 102.466 38.0455V43.5171C102.977 43.3658 103.517 43.2811 104.078 43.2811C107.196 43.2811 109.733 45.8203 109.733 48.9403C109.733 50.0576 108.827 50.9611 107.712 50.9611C106.595 50.9611 105.689 50.0576 105.689 48.9403C105.689 48.0509 104.967 47.3268 104.078 47.3268C103.188 47.3268 102.466 48.0509 102.466 48.9403V63.6005H123.356C124.036 63.6005 124.671 63.9413 125.045 64.51ZM119.994 67.6441H80.0072C80.7494 68.7877 81.6126 69.8344 82.5847 70.7783H117.415C118.387 69.8344 119.25 68.7877 119.994 67.6441ZM113.323 73.8115H86.6788C90.3332 75.8546 94.8549 76.9477 99.9998 76.9477C105.147 76.9477 109.668 75.8546 113.323 73.8115ZM94.6028 84.906H105.397C104.576 82.7218 102.466 81.1648 99.9998 81.1648C97.5332 81.1648 95.4237 82.7218 94.6028 84.906Z" fill="#9EB7E5"/>
<path d="M116.987 44.3882C117.308 44.7069 117.492 45.1506 117.492 45.6024C117.492 46.0561 117.308 46.4998 116.987 46.8185C116.669 47.1371 116.225 47.3227 115.773 47.3227C115.319 47.3227 114.876 47.1371 114.557 46.8185C114.238 46.4998 114.053 46.0561 114.053 45.6024C114.053 45.1506 114.238 44.7069 114.557 44.3882C114.876 44.0676 115.319 43.884 115.773 43.884C116.225 43.884 116.669 44.0676 116.987 44.3882Z" fill="#9EB7E5"/>
<path d="M109.102 54.3978C109.422 54.7164 109.606 55.1601 109.606 55.6139C109.606 56.0657 109.422 56.5093 109.102 56.828C108.783 57.1487 108.339 57.3322 107.886 57.3322C107.436 57.3322 106.99 57.1487 106.671 56.828C106.351 56.5093 106.167 56.0657 106.167 55.6139C106.167 55.1601 106.351 54.7164 106.671 54.3978C106.99 54.0791 107.436 53.8936 107.886 53.8936C108.339 53.8936 108.783 54.0791 109.102 54.3978Z" fill="#9EB7E5"/>
<path d="M90.7003 44.3882C91.019 44.7069 91.2025 45.1506 91.2025 45.6024C91.2025 46.0561 91.019 46.4998 90.7003 46.8185C90.3796 47.1371 89.9379 47.3227 89.4842 47.3227C89.0324 47.3227 88.5887 47.1371 88.27 46.8185C87.9494 46.4998 87.7658 46.0561 87.7658 45.6024C87.7658 45.1506 87.9494 44.7069 88.27 44.3882C88.5887 44.0676 89.0324 43.884 89.4842 43.884C89.9379 43.884 90.3796 44.0676 90.7003 44.3882Z" fill="#9EB7E5"/>
<defs>
<linearGradient id="paint0_linear" x1="34.5" y1="175" x2="164" y2="19.5" gradientUnits="userSpaceOnUse">
<stop stop-color="#18390B"/>
<stop offset="1" stop-color="#295C16"/>
</linearGradient>
</defs>
</svg>
