<svg width="175" height="58" viewBox="0 0 175 58" fill="none" xmlns="http://www.w3.org/2000/svg">
<path d="M6.84844 21C6.7151 21 6.60177 20.96 6.50844 20.88C6.42844 20.7867 6.38844 20.6733 6.38844 20.54V7.48C6.38844 7.33333 6.42844 7.22 6.50844 7.14C6.60177 7.04667 6.7151 7 6.84844 7H15.0084C15.1551 7 15.2684 7.04667 15.3484 7.14C15.4418 7.22 15.4884 7.33333 15.4884 7.48V8.28C15.4884 8.41333 15.4418 8.52667 15.3484 8.62C15.2684 8.7 15.1551 8.74 15.0084 8.74H8.32844V13.4H14.6084C14.7551 13.4 14.8684 13.4467 14.9484 13.54C15.0418 13.62 15.0884 13.7333 15.0884 13.88V14.68C15.0884 14.8133 15.0418 14.9267 14.9484 15.02C14.8551 15.1 14.7418 15.14 14.6084 15.14H8.32844V20.54C8.32844 20.6733 8.28177 20.7867 8.18844 20.88C8.0951 20.96 7.98177 21 7.84844 21H6.84844ZM23.0105 21.2C21.2638 21.2 19.9105 20.7467 18.9505 19.84C18.0038 18.92 17.5038 17.54 17.4505 15.7C17.4371 15.3 17.4305 14.7333 17.4305 14C17.4305 13.2667 17.4371 12.7067 17.4505 12.32C17.5038 10.52 18.0238 9.15333 19.0105 8.22C19.9971 7.27333 21.3305 6.8 23.0105 6.8C24.6771 6.8 26.0038 7.27333 26.9905 8.22C27.9771 9.15333 28.4971 10.52 28.5505 12.32C28.5771 13.0933 28.5905 13.6533 28.5905 14C28.5905 14.3333 28.5771 14.9 28.5505 15.7C28.4971 17.54 27.9905 18.92 27.0305 19.84C26.0838 20.7467 24.7438 21.2 23.0105 21.2ZM23.0105 19.5C24.0638 19.5 24.9038 19.18 25.5305 18.54C26.1571 17.9 26.4971 16.92 26.5505 15.6C26.5771 14.8 26.5905 14.2667 26.5905 14C26.5905 13.7067 26.5771 13.1733 26.5505 12.4C26.4971 11.08 26.1505 10.1 25.5105 9.46C24.8838 8.82 24.0505 8.5 23.0105 8.5C21.9571 8.5 21.1105 8.82 20.4705 9.46C19.8438 10.1 19.5038 11.08 19.4505 12.4C19.4371 12.7867 19.4305 13.32 19.4305 14C19.4305 14.6667 19.4371 15.2 19.4505 15.6C19.5038 16.92 19.8438 17.9 20.4705 18.54C21.1105 19.18 21.9571 19.5 23.0105 19.5ZM36.7856 21.2C35.0656 21.2 33.7323 20.74 32.7856 19.82C31.8523 18.8867 31.3856 17.48 31.3856 15.6V7.48C31.3856 7.33333 31.4256 7.22 31.5056 7.14C31.599 7.04667 31.7123 7 31.8456 7H32.8656C33.0123 7 33.1256 7.04667 33.2056 7.14C33.299 7.22 33.3456 7.33333 33.3456 7.48V15.64C33.3456 16.92 33.6456 17.88 34.2456 18.52C34.8456 19.16 35.6923 19.48 36.7856 19.48C37.879 19.48 38.7256 19.16 39.3256 18.52C39.9256 17.88 40.2256 16.92 40.2256 15.64V7.48C40.2256 7.33333 40.2656 7.22 40.3456 7.14C40.439 7.04667 40.5523 7 40.6856 7H41.7256C41.859 7 41.9656 7.04667 42.0456 7.14C42.139 7.23333 42.1856 7.34667 42.1856 7.48V15.6C42.1856 17.48 41.7123 18.8867 40.7656 19.82C39.8323 20.74 38.5056 21.2 36.7856 21.2ZM45.9891 21C45.8557 21 45.7424 20.96 45.6491 20.88C45.5691 20.7867 45.5291 20.6733 45.5291 20.54V7.48C45.5291 7.33333 45.5691 7.22 45.6491 7.14C45.7424 7.04667 45.8557 7 45.9891 7H46.9091C47.1491 7 47.3157 7.09333 47.4091 7.28L54.0491 17.48V7.48C54.0491 7.33333 54.0891 7.22 54.1691 7.14C54.2624 7.04667 54.3757 7 54.5091 7H55.4691C55.6157 7 55.7291 7.04667 55.8091 7.14C55.9024 7.22 55.9491 7.33333 55.9491 7.48V20.52C55.9491 20.6533 55.9024 20.7667 55.8091 20.86C55.7291 20.9533 55.6224 21 55.4891 21H54.5291C54.3291 21 54.1691 20.9067 54.0491 20.72L47.4291 10.62V20.54C47.4291 20.6733 47.3824 20.7867 47.2891 20.88C47.1957 20.96 47.0824 21 46.9491 21H45.9891ZM62.9553 21C62.822 21 62.7086 20.96 62.6153 20.88C62.5353 20.7867 62.4953 20.6733 62.4953 20.54V8.78H58.6553C58.522 8.78 58.4086 8.74 58.3153 8.66C58.2353 8.56667 58.1953 8.45333 58.1953 8.32V7.48C58.1953 7.34667 58.2353 7.23333 58.3153 7.14C58.4086 7.04667 58.522 7 58.6553 7H68.2953C68.442 7 68.5553 7.04667 68.6353 7.14C68.7286 7.22 68.7753 7.33333 68.7753 7.48V8.32C68.7753 8.45333 68.7286 8.56667 68.6353 8.66C68.542 8.74 68.4286 8.78 68.2953 8.78H64.4753V20.54C64.4753 20.6733 64.4286 20.7867 64.3353 20.88C64.242 20.96 64.1286 21 63.9953 21H62.9553ZM68.593 21C68.4863 21 68.393 20.96 68.313 20.88C68.233 20.8 68.193 20.7067 68.193 20.6C68.193 20.4933 68.1996 20.42 68.213 20.38L73.173 7.44C73.2796 7.14667 73.493 7 73.813 7H75.173C75.493 7 75.7063 7.14667 75.813 7.44L80.753 20.38L80.793 20.6C80.793 20.7067 80.753 20.8 80.673 20.88C80.593 20.96 80.4996 21 80.393 21H79.373C79.2263 21 79.113 20.9667 79.033 20.9C78.953 20.82 78.8996 20.74 78.873 20.66L77.773 17.82H71.213L70.113 20.66C70.0863 20.74 70.0263 20.82 69.933 20.9C69.853 20.9667 69.7463 21 69.613 21H68.593ZM77.193 16.1L74.493 9L71.793 16.1H77.193ZM83.3914 21C83.2581 21 83.1447 20.96 83.0514 20.88C82.9714 20.7867 82.9314 20.6733 82.9314 20.54V7.46C82.9314 7.32667 82.9714 7.22 83.0514 7.14C83.1447 7.04667 83.2581 7 83.3914 7H84.4514C84.5847 7 84.6914 7.04667 84.7714 7.14C84.8647 7.22 84.9114 7.32667 84.9114 7.46V20.54C84.9114 20.6733 84.8647 20.7867 84.7714 20.88C84.6914 20.96 84.5847 21 84.4514 21H83.3914ZM88.8602 21C88.7268 21 88.6135 20.96 88.5202 20.88C88.4402 20.7867 88.4002 20.6733 88.4002 20.54V7.48C88.4002 7.33333 88.4402 7.22 88.5202 7.14C88.6135 7.04667 88.7268 7 88.8602 7H89.7802C90.0202 7 90.1868 7.09333 90.2802 7.28L96.9202 17.48V7.48C96.9202 7.33333 96.9602 7.22 97.0402 7.14C97.1335 7.04667 97.2468 7 97.3802 7H98.3402C98.4868 7 98.6002 7.04667 98.6802 7.14C98.7735 7.22 98.8202 7.33333 98.8202 7.48V20.52C98.8202 20.6533 98.7735 20.7667 98.6802 20.86C98.6002 20.9533 98.4935 21 98.3602 21H97.4002C97.2002 21 97.0402 20.9067 96.9202 20.72L90.3002 10.62V20.54C90.3002 20.6733 90.2535 20.7867 90.1602 20.88C90.0668 20.96 89.9535 21 89.8202 21H88.8602ZM112.309 21.2C110.562 21.2 109.202 20.7267 108.229 19.78C107.269 18.82 106.755 17.5133 106.689 15.86C106.675 15.46 106.669 14.8333 106.669 13.98C106.669 13.1133 106.675 12.4867 106.689 12.1C106.755 10.46 107.275 9.16667 108.249 8.22C109.222 7.27333 110.575 6.8 112.309 6.8C113.482 6.8 114.475 7.01333 115.289 7.44C116.115 7.85333 116.735 8.36 117.149 8.96C117.562 9.56 117.782 10.12 117.809 10.64V10.68C117.809 10.7867 117.769 10.8733 117.689 10.94C117.609 11.0067 117.509 11.04 117.389 11.04H116.209C116.075 11.04 115.975 11.02 115.909 10.98C115.855 10.9267 115.802 10.8267 115.749 10.68C115.549 10.08 115.162 9.56667 114.589 9.14C114.029 8.71333 113.269 8.5 112.309 8.5C111.202 8.5 110.335 8.8 109.709 9.4C109.082 10 108.742 10.9333 108.689 12.2C108.675 12.5867 108.669 13.18 108.669 13.98C108.669 14.7667 108.675 15.36 108.689 15.76C108.742 17.04 109.082 17.9867 109.709 18.6C110.335 19.2 111.202 19.5 112.309 19.5C113.429 19.5 114.322 19.1933 114.989 18.58C115.655 17.9667 115.989 17.0467 115.989 15.82V14.98H112.989C112.855 14.98 112.742 14.94 112.649 14.86C112.569 14.7667 112.529 14.6467 112.529 14.5V13.86C112.529 13.7267 112.569 13.6133 112.649 13.52C112.742 13.4267 112.855 13.38 112.989 13.38H117.509C117.642 13.38 117.749 13.4267 117.829 13.52C117.922 13.6 117.969 13.7133 117.969 13.86V15.78C117.969 16.8733 117.742 17.8267 117.289 18.64C116.835 19.4533 116.182 20.0867 115.329 20.54C114.475 20.98 113.469 21.2 112.309 21.2ZM121.282 21C121.149 21 121.035 20.96 120.942 20.88C120.862 20.7867 120.822 20.6733 120.822 20.54V7.48C120.822 7.33333 120.862 7.22 120.942 7.14C121.035 7.04667 121.149 7 121.282 7H126.162C127.695 7 128.895 7.36 129.762 8.08C130.629 8.8 131.062 9.84 131.062 11.2C131.062 12.2133 130.809 13.0467 130.302 13.7C129.809 14.3533 129.109 14.8067 128.202 15.06L131.282 20.38C131.322 20.46 131.342 20.5333 131.342 20.6C131.342 20.7067 131.295 20.8 131.202 20.88C131.122 20.96 131.029 21 130.922 21H129.962C129.762 21 129.602 20.9533 129.482 20.86C129.375 20.7667 129.275 20.6333 129.182 20.46L126.282 15.38H122.782V20.54C122.782 20.6733 122.735 20.7867 122.642 20.88C122.549 20.96 122.435 21 122.302 21H121.282ZM126.082 13.68C128.069 13.68 129.062 12.8467 129.062 11.18C129.062 9.51333 128.069 8.68 126.082 8.68H122.782V13.68H126.082ZM134.388 21C134.254 21 134.141 20.96 134.048 20.88C133.968 20.7867 133.928 20.6733 133.928 20.54V7.48C133.928 7.33333 133.968 7.22 134.048 7.14C134.141 7.04667 134.254 7 134.388 7H142.648C142.781 7 142.888 7.04667 142.968 7.14C143.061 7.22 143.108 7.33333 143.108 7.48V8.24C143.108 8.37333 143.068 8.48667 142.988 8.58C142.908 8.66 142.794 8.7 142.648 8.7H135.848V13.08H142.208C142.341 13.08 142.448 13.1267 142.528 13.22C142.621 13.3 142.668 13.4133 142.668 13.56V14.3C142.668 14.4333 142.621 14.5467 142.528 14.64C142.448 14.72 142.341 14.76 142.208 14.76H135.848V19.3H142.808C142.954 19.3 143.068 19.34 143.148 19.42C143.228 19.5 143.268 19.6133 143.268 19.76V20.54C143.268 20.6733 143.221 20.7867 143.128 20.88C143.048 20.96 142.941 21 142.808 21H134.388ZM146.516 21C146.383 21 146.27 20.96 146.176 20.88C146.096 20.7867 146.056 20.6733 146.056 20.54V7.48C146.056 7.33333 146.096 7.22 146.176 7.14C146.27 7.04667 146.383 7 146.516 7H154.776C154.91 7 155.016 7.04667 155.096 7.14C155.19 7.22 155.236 7.33333 155.236 7.48V8.24C155.236 8.37333 155.196 8.48667 155.116 8.58C155.036 8.66 154.923 8.7 154.776 8.7H147.976V13.08H154.336C154.47 13.08 154.576 13.1267 154.656 13.22C154.75 13.3 154.796 13.4133 154.796 13.56V14.3C154.796 14.4333 154.75 14.5467 154.656 14.64C154.576 14.72 154.47 14.76 154.336 14.76H147.976V19.3H154.936C155.083 19.3 155.196 19.34 155.276 19.42C155.356 19.5 155.396 19.6133 155.396 19.76V20.54C155.396 20.6733 155.35 20.7867 155.256 20.88C155.176 20.96 155.07 21 154.936 21H146.516ZM158.645 21C158.512 21 158.399 20.96 158.305 20.88C158.225 20.7867 158.185 20.6733 158.185 20.54V7.48C158.185 7.33333 158.225 7.22 158.305 7.14C158.399 7.04667 158.512 7 158.645 7H159.565C159.805 7 159.972 7.09333 160.065 7.28L166.705 17.48V7.48C166.705 7.33333 166.745 7.22 166.825 7.14C166.919 7.04667 167.032 7 167.165 7H168.125C168.272 7 168.385 7.04667 168.465 7.14C168.559 7.22 168.605 7.33333 168.605 7.48V20.52C168.605 20.6533 168.559 20.7667 168.465 20.86C168.385 20.9533 168.279 21 168.145 21H167.185C166.985 21 166.825 20.9067 166.705 20.72L160.085 10.62V20.54C160.085 20.6733 160.039 20.7867 159.945 20.88C159.852 20.96 159.739 21 159.605 21H158.645Z" fill="#FAFF7F"/>
<path d="M11.5892 52C11.4292 52 11.2932 51.952 11.1812 51.856C11.0852 51.744 11.0372 51.608 11.0372 51.448V35.776C11.0372 35.6 11.0852 35.464 11.1812 35.368C11.2932 35.256 11.4292 35.2 11.5892 35.2H18.1652C19.8772 35.2 21.1652 35.608 22.0292 36.424C22.8932 37.24 23.3252 38.312 23.3252 39.64C23.3252 40.536 23.1172 41.28 22.7012 41.872C22.3012 42.464 21.8212 42.896 21.2612 43.168C21.9332 43.504 22.5012 44.024 22.9652 44.728C23.4292 45.432 23.6612 46.24 23.6612 47.152C23.6612 48.048 23.4532 48.864 23.0372 49.6C22.6372 50.336 22.0372 50.92 21.2372 51.352C20.4372 51.784 19.4772 52 18.3572 52H11.5892ZM17.8052 42.304C18.8132 42.304 19.5812 42.072 20.1092 41.608C20.6532 41.144 20.9252 40.496 20.9252 39.664C20.9252 38.848 20.6612 38.224 20.1332 37.792C19.6052 37.36 18.8292 37.144 17.8052 37.144H13.3892V42.304H17.8052ZM18.0452 50.056C19.0532 50.056 19.8372 49.784 20.3972 49.24C20.9732 48.696 21.2612 48 21.2612 47.152C21.2612 46.272 20.9732 45.568 20.3972 45.04C19.8372 44.496 19.0532 44.224 18.0452 44.224H13.3892V50.056H18.0452ZM27.6205 52C27.4605 52 27.3245 51.952 27.2125 51.856C27.1165 51.744 27.0685 51.608 27.0685 51.448V35.752C27.0685 35.592 27.1165 35.464 27.2125 35.368C27.3245 35.256 27.4605 35.2 27.6205 35.2H28.8925C29.0525 35.2 29.1805 35.256 29.2765 35.368C29.3885 35.464 29.4445 35.592 29.4445 35.752V49.912H37.4125C37.5885 49.912 37.7245 49.968 37.8205 50.08C37.9325 50.176 37.9885 50.312 37.9885 50.488V51.448C37.9885 51.608 37.9325 51.744 37.8205 51.856C37.7085 51.952 37.5725 52 37.4125 52H27.6205ZM46.4055 52.24C44.3095 52.24 42.6855 51.696 41.5335 50.608C40.3975 49.504 39.7975 47.848 39.7335 45.64C39.7175 45.16 39.7095 44.48 39.7095 43.6C39.7095 42.72 39.7175 42.048 39.7335 41.584C39.7975 39.424 40.4215 37.784 41.6055 36.664C42.7895 35.528 44.3895 34.96 46.4055 34.96C48.4055 34.96 49.9975 35.528 51.1815 36.664C52.3655 37.784 52.9895 39.424 53.0535 41.584C53.0855 42.512 53.1015 43.184 53.1015 43.6C53.1015 44 53.0855 44.68 53.0535 45.64C52.9895 47.848 52.3815 49.504 51.2295 50.608C50.0935 51.696 48.4855 52.24 46.4055 52.24ZM46.4055 50.2C47.6695 50.2 48.6775 49.816 49.4295 49.048C50.1815 48.28 50.5895 47.104 50.6535 45.52C50.6855 44.56 50.7015 43.92 50.7015 43.6C50.7015 43.248 50.6855 42.608 50.6535 41.68C50.5895 40.096 50.1735 38.92 49.4055 38.152C48.6535 37.384 47.6535 37 46.4055 37C45.1415 37 44.1255 37.384 43.3575 38.152C42.6055 38.92 42.1975 40.096 42.1335 41.68C42.1175 42.144 42.1095 42.784 42.1095 43.6C42.1095 44.4 42.1175 45.04 42.1335 45.52C42.1975 47.104 42.6055 48.28 43.3575 49.048C44.1255 49.816 45.1415 50.2 46.4055 50.2ZM62.6477 52.24C60.5037 52.24 58.8717 51.664 57.7517 50.512C56.6477 49.36 56.0557 47.768 55.9757 45.736C55.9597 45.304 55.9517 44.6 55.9517 43.624C55.9517 42.632 55.9597 41.912 55.9757 41.464C56.0557 39.448 56.6557 37.864 57.7757 36.712C58.8957 35.544 60.5197 34.96 62.6477 34.96C64.0717 34.96 65.2797 35.216 66.2717 35.728C67.2637 36.224 68.0157 36.88 68.5277 37.696C69.0397 38.512 69.3197 39.384 69.3677 40.312V40.36C69.3677 40.488 69.3117 40.6 69.1997 40.696C69.1037 40.776 68.9917 40.816 68.8637 40.816H67.5437C67.2237 40.816 67.0237 40.632 66.9437 40.264C66.6717 39.064 66.1837 38.224 65.4797 37.744C64.7757 37.248 63.8317 37 62.6477 37C59.8957 37 58.4717 38.528 58.3757 41.584C58.3597 42.016 58.3517 42.68 58.3517 43.576C58.3517 44.472 58.3597 45.152 58.3757 45.616C58.4717 48.672 59.8957 50.2 62.6477 50.2C63.8317 50.2 64.7757 49.96 65.4797 49.48C66.1997 48.984 66.6877 48.136 66.9437 46.936C66.9917 46.728 67.0637 46.584 67.1597 46.504C67.2557 46.424 67.3837 46.384 67.5437 46.384H68.8637C69.0077 46.384 69.1277 46.432 69.2237 46.528C69.3357 46.608 69.3837 46.72 69.3677 46.864C69.3197 47.808 69.0397 48.688 68.5277 49.504C68.0157 50.32 67.2637 50.984 66.2717 51.496C65.2797 51.992 64.0717 52.24 62.6477 52.24ZM73.1361 52C72.9761 52 72.8401 51.952 72.7281 51.856C72.6321 51.744 72.5841 51.608 72.5841 51.448V35.776C72.5841 35.6 72.6321 35.464 72.7281 35.368C72.8401 35.256 72.9761 35.2 73.1361 35.2H74.3361C74.5121 35.2 74.6481 35.256 74.7441 35.368C74.8561 35.464 74.9121 35.6 74.9121 35.776V41.728L81.3201 35.584C81.5761 35.328 81.8881 35.2 82.2561 35.2H83.5521C83.6801 35.2 83.7921 35.248 83.8881 35.344C83.9841 35.44 84.0321 35.552 84.0321 35.68C84.0321 35.808 84.0001 35.912 83.9361 35.992L76.5201 43.24L84.4161 51.184C84.4961 51.28 84.5361 51.392 84.5361 51.52C84.5361 51.648 84.4881 51.76 84.3921 51.856C84.2961 51.952 84.1841 52 84.0561 52H82.7121C82.3601 52 82.0481 51.864 81.7761 51.592L74.9121 44.848V51.448C74.9121 51.608 74.8561 51.744 74.7441 51.856C74.6321 51.952 74.4961 52 74.3361 52H73.1361ZM93.1986 52C93.0386 52 92.9026 51.952 92.7906 51.856C92.6946 51.744 92.6466 51.608 92.6466 51.448V35.776C92.6466 35.6 92.6946 35.464 92.7906 35.368C92.9026 35.256 93.0386 35.2 93.1986 35.2H99.2946C101.103 35.2 102.527 35.64 103.567 36.52C104.607 37.4 105.127 38.672 105.127 40.336C105.127 42 104.607 43.272 103.567 44.152C102.543 45.016 101.119 45.448 99.2946 45.448H95.0466V51.448C95.0466 51.608 94.9906 51.744 94.8786 51.856C94.7666 51.952 94.6306 52 94.4706 52H93.1986ZM99.1746 43.432C100.343 43.432 101.223 43.168 101.815 42.64C102.423 42.112 102.727 41.344 102.727 40.336C102.727 39.328 102.431 38.56 101.839 38.032C101.247 37.488 100.359 37.216 99.1746 37.216H95.0226V43.432H99.1746ZM105.956 52C105.828 52 105.716 51.952 105.62 51.856C105.524 51.76 105.476 51.648 105.476 51.52C105.476 51.392 105.484 51.304 105.5 51.256L111.452 35.728C111.58 35.376 111.836 35.2 112.22 35.2H113.852C114.236 35.2 114.492 35.376 114.62 35.728L120.548 51.256L120.596 51.52C120.596 51.648 120.548 51.76 120.452 51.856C120.356 51.952 120.244 52 120.116 52H118.892C118.716 52 118.58 51.96 118.484 51.88C118.388 51.784 118.324 51.688 118.292 51.592L116.972 48.184H109.1L107.78 51.592C107.748 51.688 107.676 51.784 107.564 51.88C107.468 51.96 107.34 52 107.18 52H105.956ZM116.276 46.12L113.036 37.6L109.796 46.12H116.276ZM123.714 52C123.554 52 123.418 51.952 123.306 51.856C123.21 51.744 123.162 51.608 123.162 51.448V35.776C123.162 35.6 123.21 35.464 123.306 35.368C123.418 35.256 123.554 35.2 123.714 35.2H129.57C131.41 35.2 132.85 35.632 133.89 36.496C134.93 37.36 135.45 38.608 135.45 40.24C135.45 41.456 135.146 42.456 134.538 43.24C133.946 44.024 133.106 44.568 132.018 44.872L135.714 51.256C135.762 51.352 135.786 51.44 135.786 51.52C135.786 51.648 135.73 51.76 135.618 51.856C135.522 51.952 135.41 52 135.282 52H134.13C133.89 52 133.698 51.944 133.554 51.832C133.426 51.72 133.306 51.56 133.194 51.352L129.714 45.256H125.514V51.448C125.514 51.608 125.458 51.744 125.346 51.856C125.234 51.952 125.098 52 124.938 52H123.714ZM129.474 43.216C131.858 43.216 133.05 42.216 133.05 40.216C133.05 38.216 131.858 37.216 129.474 37.216H125.514V43.216H129.474ZM142.925 52C142.765 52 142.629 51.952 142.517 51.856C142.421 51.744 142.373 51.608 142.373 51.448V37.336H137.765C137.605 37.336 137.469 37.288 137.357 37.192C137.261 37.08 137.213 36.944 137.213 36.784V35.776C137.213 35.616 137.261 35.48 137.357 35.368C137.469 35.256 137.605 35.2 137.765 35.2H149.333C149.509 35.2 149.645 35.256 149.741 35.368C149.853 35.464 149.909 35.6 149.909 35.776V36.784C149.909 36.944 149.853 37.08 149.741 37.192C149.629 37.288 149.493 37.336 149.333 37.336H144.749V51.448C144.749 51.608 144.693 51.744 144.581 51.856C144.469 51.952 144.333 52 144.173 52H142.925ZM157.64 52C157.48 52 157.344 51.952 157.232 51.856C157.136 51.744 157.088 51.608 157.088 51.448V45.784L151.304 35.992C151.304 35.96 151.296 35.912 151.28 35.848C151.248 35.784 151.232 35.728 151.232 35.68C151.232 35.552 151.28 35.44 151.376 35.344C151.472 35.248 151.584 35.2 151.712 35.2H152.96C153.232 35.2 153.44 35.336 153.584 35.608L158.264 43.384L162.944 35.608C163.12 35.336 163.336 35.2 163.592 35.2H164.816C164.96 35.2 165.08 35.248 165.176 35.344C165.272 35.44 165.32 35.552 165.32 35.68C165.32 35.76 165.288 35.864 165.224 35.992L159.464 45.784V51.448C159.464 51.608 159.408 51.744 159.296 51.856C159.184 51.952 159.048 52 158.888 52H157.64Z" fill="#9EB7E5"/>
</svg>
